<svg xmlns="http://www.w3.org/2000/svg" viewBox="0 0 125 125"><defs><style>.cls-1{fill:#ffe424;stroke:#ffe424;}.cls-1,.cls-2,.cls-3,.cls-4,.cls-5,.cls-6,.cls-7,.cls-9{stroke-miterlimit:10;}.cls-1,.cls-2,.cls-3,.cls-6{stroke-width:3px;}.cls-2{fill:#ff70a5;stroke:#ff70a5;}.cls-3{fill:#74f9ff;stroke:#74f9ff;}.cls-4,.cls-5,.cls-6,.cls-7,.cls-9{stroke:#020202;}.cls-4,.cls-7{stroke-width:2px;}.cls-7{fill:none;}.cls-8{fill:#ffc820;}.cls-9{fill:#ef6ca4;}.cls-10{fill:#020202;}</style></defs><g id="Layer_1" data-name="Layer 1"><text/><line class="cls-1" x1="47.09" y1="46.1" x2="31.87" y2="42.73"/><polygon class="cls-1" points="28.4 43.52 51.77 48.71 51.48 50.19 28.1 45 28.4 43.52"/><polygon class="cls-1" points="87.91 103.31 98.19 51.25 36.23 35.91 36.72 88.97 87.91 103.31"/><polyline class="cls-1" points="32.32 33.19 34.25 88.62 49.05 74.97 37.81 33.08"/><polygon class="cls-1" points="28.28 54.44 39.58 56.24 39.74 54.63 28.45 52.83 28.28 54.44"/><polygon class="cls-1" points="23.89 76.44 47.2 82.09 47.53 80.52 24.22 74.88 23.89 76.44"/><polygon class="cls-1" points="26.71 78.79 26.78 78.48 41.95 82.17 41.89 82.48 26.71 78.79"/><polygon class="cls-1" points="76.1 65.54 99.4 71.19 99.46 70.92 76.16 65.27 76.1 65.54"/><polygon class="cls-1" points="93.42 51.64 104.57 54.34 104.9 52.77 93.75 50.07 93.42 51.64"/><polygon class="cls-1" points="86.83 66.12 106.89 70.98 107.22 69.41 87.17 64.55 86.83 66.12"/><polygon class="cls-1" points="90.74 52.29 90.81 51.98 105.98 55.66 105.92 55.97 90.74 52.29"/><polygon class="cls-1" points="101.38 65.26 102.39 65.5 102.55 64.72 101.54 64.47 101.38 65.26"/><polygon class="cls-1" points="21.54 70.31 22.55 70.56 22.72 69.77 21.71 69.53 21.54 70.31"/><polygon class="cls-1" points="27.61 72.72 27.36 72.66 27.31 72.89 27.56 72.95 27.61 72.72"/><polygon class="cls-1" points="97.1 92.73 98.11 92.98 98.28 92.19 97.27 91.95 97.1 92.73"/><polygon class="cls-1" points="108.72 75.96 108.47 75.9 108.42 76.12 108.67 76.18 108.72 75.96"/><polygon class="cls-1" points="27.1 38.58 26.85 38.51 26.8 38.74 27.05 38.8 27.1 38.58"/><text/><line class="cls-2" x1="70.17" y1="33.6" x2="85.39" y2="30.23"/><polygon class="cls-2" points="88.86 31.03 65.49 36.21 65.79 37.7 89.16 32.51 88.86 31.03"/><polygon class="cls-2" points="29.35 90.81 19.07 38.75 81.03 23.41 80.54 76.48 29.35 90.81"/><polyline class="cls-2" points="79.68 25.66 81.09 76.83 68.56 63.41 75.3 25.27"/><polygon class="cls-2" points="88.98 41.94 77.69 43.74 77.52 42.14 88.81 40.34 88.98 41.94"/><polygon class="cls-2" points="93.37 63.95 70.06 69.6 69.73 68.03 93.04 62.38 93.37 63.95"/><polygon class="cls-2" points="90.55 66.3 90.48 65.99 75.31 69.67 75.37 69.98 90.55 66.3"/><polygon class="cls-2" points="41.16 53.05 17.86 58.69 17.8 58.42 41.11 52.77 41.16 53.05"/><polygon class="cls-2" points="23.84 39.15 12.69 41.85 12.36 40.28 23.51 37.58 23.84 39.15"/><polygon class="cls-2" points="30.43 53.63 10.38 58.48 10.04 56.91 30.09 52.06 30.43 53.63"/><polygon class="cls-2" points="26.52 39.79 26.46 39.48 11.28 43.17 11.35 43.48 26.52 39.79"/><polygon class="cls-2" points="15.88 52.76 14.88 53.01 14.71 52.22 15.72 51.98 15.88 52.76"/><polygon class="cls-2" points="95.72 57.82 94.71 58.06 94.54 57.28 95.55 57.03 95.72 57.82"/><polygon class="cls-2" points="89.65 60.23 89.9 60.17 89.95 60.39 89.7 60.45 89.65 60.23"/><polygon class="cls-2" points="20.16 80.24 19.15 80.48 18.98 79.7 19.99 79.45 20.16 80.24"/><polygon class="cls-2" points="8.54 63.47 8.79 63.41 8.84 63.63 8.59 63.69 8.54 63.47"/><polygon class="cls-2" points="90.16 26.08 90.41 26.02 90.46 26.24 90.21 26.3 90.16 26.08"/><text/><line class="cls-3" x1="40.69" y1="52.32" x2="25.21" y2="54.2"/><polygon class="cls-3" points="22.2 56.1 45.97 53.23 46.18 54.72 22.41 57.6 22.2 56.1"/><polygon class="cls-3" points="98.21 92.7 90.59 40.18 27.05 46.32 45.16 96.2 98.21 92.7"/><polyline class="cls-3" points="22.46 45.05 42.72 96.69 52.13 78.9 27.6 43.13"/><polygon class="cls-3" points="25.72 66.44 36.97 64.38 36.59 62.81 25.35 64.87 25.72 66.44"/><polygon class="cls-3" points="28.9 88.65 52.75 86.23 52.54 84.64 28.69 87.06 28.9 88.65"/><polygon class="cls-3" points="32.34 89.93 32.3 89.62 47.83 88.05 47.88 88.36 32.34 89.93"/><polygon class="cls-3" points="74.5 61.01 98.36 58.59 98.33 58.31 74.47 60.73 74.5 61.01"/><polygon class="cls-3" points="86.22 42.14 97.64 40.98 97.43 39.39 86.01 40.55 86.22 42.14"/><polygon class="cls-3" points="84.83 57.99 105.35 55.9 105.14 54.31 84.62 56.4 84.83 57.99"/><polygon class="cls-3" points="83.91 43.64 83.86 43.33 99.4 41.76 99.44 42.07 83.91 43.64"/><polygon class="cls-3" points="98.25 52.34 99.28 52.23 99.18 51.44 98.15 51.54 98.25 52.34"/><polygon class="cls-3" points="24.64 83.65 25.68 83.55 25.57 82.75 24.54 82.86 24.64 83.65"/><polygon class="cls-3" points="31.17 83.91 30.91 83.94 30.94 84.16 31.2 84.14 31.17 83.91"/><polygon class="cls-3" points="103.36 79.67 104.39 79.57 104.29 78.77 103.25 78.88 103.36 79.67"/><polygon class="cls-3" points="108.73 59.99 108.48 60.02 108.51 60.24 108.77 60.22 108.73 59.99"/><polygon class="cls-3" points="19.33 51.87 19.07 51.9 19.1 52.12 19.36 52.1 19.33 51.87"/><line class="cls-4" x1="82.85" y1="79.02" x2="97.55" y2="76.81"/><polygon class="cls-4" points="100.38 74.72 77.81 78.08 77.59 76.46 100.16 73.09 100.38 74.72"/><polygon class="cls-4" points="27.62 35.62 35.53 92.73 95.89 85.42 78.04 31.28 27.62 35.62"/><polyline class="cls-4" points="100.28 86.75 80.36 30.72 71.63 50.19 95.41 88.9"/><rect class="cls-4" x="86.29" y="64.65" width="10.93" height="1.74" transform="translate(-11.94 21.26) rotate(-12.41)"/><rect class="cls-4" x="70.96" y="40.77" width="22.84" height="1.74" transform="translate(-4.59 10.7) rotate(-7.23)"/><rect class="cls-4" x="75.52" y="38.91" width="14.88" height="0.34" transform="translate(-4.26 10.77) rotate(-7.24)"/><rect class="cls-4" x="27.84" y="71.33" width="22.84" height="0.3" transform="translate(-8.69 5.51) rotate(-7.23)"/><rect class="cls-4" x="28.89" y="91.23" width="10.93" height="1.74" transform="matrix(0.99, -0.13, 0.13, 0.99, -11.32, 5.06)"/><rect class="cls-4" x="21.33" y="74.51" width="19.65" height="1.74" transform="matrix(0.99, -0.13, 0.13, 0.99, -9.24, 4.52)"/><rect class="cls-4" x="27.05" y="89.83" width="14.88" height="0.34" transform="matrix(0.99, -0.13, 0.13, 0.99, -11.07, 5.06)"/><rect class="cls-4" x="27.16" y="79.63" width="0.99" height="0.87" transform="translate(-9.86 4.12) rotate(-7.23)"/><rect class="cls-4" x="96.78" y="44.8" width="0.99" height="0.87" transform="translate(-4.92 12.61) rotate(-7.23)"/><rect class="cls-5" x="91.49" y="44.27" width="0.25" height="0.25" transform="translate(188.08 76.89) rotate(172.77)"/><rect class="cls-6" x="21.96" y="49.92" width="0.99" height="0.87" transform="translate(-6.16 3.23) rotate(-7.23)"/><rect class="cls-4" x="18.01" y="71.08" width="0.25" height="0.25" transform="translate(45.08 139.55) rotate(172.77)"/><rect class="cls-4" x="103.15" y="79.03" width="0.25" height="0.25" transform="translate(215.69 144.68) rotate(172.77)"/></g><g id="Layer_2" data-name="Layer 2"><path class="cls-7" d="M70.9,30.09,64.58,52.21a21.42,21.42,0,0,0-.11-3.65c-1.19-10.29-8.88-16.34-19.21-15.15,0,0-9.46,1.17-12.09,1.61a3.37,3.37,0,0,0-.66.14h0c-3.37.36-8.4.89-8.6.89l1.38,7.47,5.46-.77,3.11,26.89,15.41-1.78c6.07-.7,10.65-3.67,13.18-8.09L60.59,66.2,70.83,65l1.22-4.91,13.41-1.55,2.32,4.5L98,61.87,79.79,29.07ZM48.56,59.93l-6.05.7h0L40.35,42l6.06-.7c4.23-.49,7.5,2.86,8.14,8.4S52.8,59.44,48.56,59.93Zm25.61-8.09,2.58-10.3L81.57,51Z"/><path class="cls-8" d="M70.9,30.09,64.58,52.21a21.42,21.42,0,0,0-.11-3.65c-1.19-10.29-8.88-16.34-19.21-15.15,0,0-9.46,1.17-12.09,1.61a3.37,3.37,0,0,0-.66.14h0c-3.37.36-8.4.89-8.6.89l1.38,7.47,5.46-.77,3.11,26.89,15.41-1.78c6.07-.7,10.65-3.67,13.18-8.09L60.59,66.2,70.83,65l1.22-4.91,13.41-1.55,2.32,4.5L98,61.87,79.79,29.07ZM48.56,59.93l-6.05.7h0L40.35,42l6.06-.7c4.23-.49,7.5,2.86,8.14,8.4S52.8,59.44,48.56,59.93Zm25.61-8.09,2.58-10.3L81.57,51Z"/><path class="cls-9" d="M102.14,88.56,100.61,81,87.08,83.72,82,58.34l-9.17,1.85L77,80.89l-4.14-1.46s0,0,0,0c-.6,3.68-2.19,6.31-6.07,7.92-5.28,2.19-10.34,0-12.63-5.46s-.34-10.47,4.81-12.61c3.29-1.37,6.66-1.19,9,.33l3.21-8c-4.84-2.25-10-1.82-15.28.36-10.65,4.43-15,13.87-11,23.69S58.9,99.25,69.55,94.83a19.7,19.7,0,0,0,8.86-6.76l1,5.07Z"/><path class="cls-10" d="M77.75,50.11Q81.2,56.4,84.43,62.8a1.5,1.5,0,0,0,2,.53,1.54,1.54,0,0,0,.54-2Q83.8,54.88,80.34,48.6c-.94-1.69-3.53-.18-2.59,1.51Z"/></g></svg>