<svg id="Layer_3" data-name="Layer 3" xmlns="http://www.w3.org/2000/svg" viewBox="0 0 300 100"><defs><style>.cls-1{fill:#ffe424;}.cls-2{fill:#ff70a5;}.cls-3{fill:#74f9ff;}.cls-4{fill:none;stroke-width:2px;}.cls-4,.cls-6{stroke:#020202;stroke-miterlimit:10;}.cls-5{fill:#ffc820;}.cls-6{fill:#ef6ca4;}.cls-7{fill:#020202;}</style></defs><path class="cls-1" d="M231.69,55.24l-.94-5.39-5.17.4-.82-3.73,3.18-.25L227,40.88l-3.42.27-.78-3.54,5.41-.42-.95-5.39-5.65.44-.6-2.7,5.64-.43-.94-5.43-5.86.45-.8-3.76,3.83-.29-1-5.42-4,.31-.76-3.57,6-.46-.95-5.42-26.49,2,.54,3.09-2.24.06c-4.05-2-9-2.65-14.51-2.23-9.42.72-15.8,4.27-17.41,9.32l-3.46,1.16-1.4-8-9.94.76h0l2.44,12.52-22.36-11h0l-6.13.47h0l2.43,13.89,6.46,7.69-2.25.14L110.13,14.3l-9.21.71L94.38,30.16a10.13,10.13,0,0,0-.12-2.5c-1.24-7-9.2-11.2-19.91-10.38,0,0-9.8.8-12.53,1.1a4.86,4.86,0,0,0-.68.1h0c-3.49.24-8.7.61-8.91.6l1.43,5.12,5.66-.52,3,16.85-4.36.7L60,57.42l4.12-3a9.2,9.2,0,0,0,.12,1.94c1.27,7.3,10.14,11.6,22,10.7,6.75-.52,11.84-2.49,15-6.1l-.86-.4c.33-.17.65-.36,1-.54l1,5.89,23.84-1.83-.59-3.37a40.63,40.63,0,0,0,9.26,1.6,37.19,37.19,0,0,0,7.36.14c11.92-.91,19-6.45,17.75-13.84a10.37,10.37,0,0,0-2.24-4.84l2.6-.65,0,.1a10.31,10.31,0,0,1,2.92,5.51,8.72,8.72,0,0,1-.94,5.81l1,5.71,9.87-.75-1.63-8.59,16.36,7.29-8.15-6.75L193,58l6-.46,0-.2,1.58.12,0-.83,4.23-.44.19,1.13ZM132.9,24l18.31,9-.53,1.26-17.62-9.42L132.9,24Zm-53,18.77-.72-2h.09C79.49,41.44,79.7,42.09,79.92,42.77Zm68.29,11.3a7.36,7.36,0,0,0,1.15-3.92,7.22,7.22,0,0,0-.65-2.95,6.5,6.5,0,0,1,.81,2.18A5.37,5.37,0,0,1,148.21,54.07Zm-31-18-4.36.28-.39-1.58,3.53-.27Zm-6.47-6.66a5.08,5.08,0,0,0,.55-1l.67.87Zm-19,6.81-.46,0a11.05,11.05,0,0,0,.83-.85Zm-8.44-3.71a9,9,0,0,0,0-6.09,6.91,6.91,0,0,1,.68,2A5.82,5.82,0,0,1,83.32,32.52Zm-3.4,10.25L80,43l-.44,0ZM126.79,59.3l0,.3h-.14Zm29.51-22,2.94-.06.32,1.8Z"/><path class="cls-1" d="M180.6,34.93,183,47.37,160.8,36.45l-6.09.46,1.12,6.43a10.31,10.31,0,0,1,2.92,5.51,8.71,8.71,0,0,1-.94,5.81l1,5.72,9.88-.76-2.38-12.45L188.53,58.1l6-.46-4.1-23.46Z"/><polygon class="cls-1" points="226.29 49.99 209.51 51.28 208.86 47.53 223.48 46.42 222.54 41.03 207.91 42.15 207.29 38.59 223.74 37.34 222.8 31.95 196.47 33.96 200.58 57.42 227.23 55.38 226.29 49.99"/><path class="cls-1" d="M96.46,15.15,89.92,30.3a10.13,10.13,0,0,0-.12-2.5c-1.23-7-9.2-11.19-19.91-10.38,0,0-9.8.8-12.53,1.11a6.22,6.22,0,0,0-.68.09h0c-3.48.25-8.7.61-8.91.61l1.43,5.12,5.66-.53,3.22,18.43L74,41c6.29-.48,11-2.52,13.66-5.54l-1.9,4.39,10.61-.81,1.27-3.36,13.89-1.06,2.4,3.08,10.62-.81-18.9-22.48ZM73.32,35.59,67,36.07h0L64.81,23.31l6.27-.48c4.39-.34,7.78,2,8.44,5.76S77.71,35.26,73.32,35.59Zm26.53-5.53L102.53,23l5,6.47Z"/><path class="cls-1" d="M89.35,57.66c-1.65,2.32-4,3.75-8.31,4.08-5.89.45-10.32-1.93-11-6s2.64-7,8.38-7.4c3.67-.28,7,.47,8.84,1.91l5.49-4.69c-4.18-2.4-9.49-3.09-15.32-2.64-11.87.91-18.95,6.3-17.68,13.54s10.14,11.61,22,10.7c6.76-.52,11.84-2.49,15-6.09l-7.32-3.44Z"/><polygon class="cls-1" points="106.54 60.03 103.46 42.41 93.83 43.15 97.83 66.03 121.67 64.2 120.75 58.95 106.54 60.03"/><path class="cls-1" d="M133.4,37.93c-12,.92-19.14,6.46-17.85,13.85a10.68,10.68,0,0,0,3.66,6.27.46.46,0,0,0,.37.1l2.49-.19.37,2.14a.34.34,0,0,0,.17.19c3.88,1.89,9.09,2.74,15.09,2.28,11.92-.91,19.05-6.45,17.75-13.84S145.31,37,133.4,37.93Zm3.34,19.13c-5.73.44-10-2-10.75-6.08s2.63-7.1,8.37-7.54,10,2,10.7,6.09S142.43,56.63,136.74,57.06Z"/><path class="cls-1" d="M142.81,11.82h0l2.44,12.52-22.36-11h0l-6.13.47h0l2.43,13.89,6.74,8c.45.54,0,1.19-.81,1.38l5.71-.43-2.39-12.53h0l22.36,11h0l6.08-.47-4.13-23.61Z"/><path class="cls-1" d="M178.65,27.4c-5.89.45-10.31-1.92-11-6s2.65-7,8.39-7.39c3.66-.29,7,.46,8.84,1.91h0l5.48-4.69c-4.18-2.4-9.48-3.09-15.32-2.65-11.87.91-18.94,6.3-17.68,13.55s10.15,11.6,22,10.7c6.75-.52,11.83-2.49,15-6.1L187,23.31C185.33,25.63,183,27.07,178.65,27.4Z"/><polygon class="cls-1" points="221.24 23.82 204.35 25.11 203.69 21.35 218.41 20.23 217.46 14.8 202.75 15.93 202.12 12.35 218.67 11.09 217.72 5.66 191.23 7.69 195.36 31.3 222.19 29.25 221.24 23.82"/><polygon class="cls-1" points="239.91 15.89 159.23 20.81 158.91 17.53 239.59 12.62 239.91 15.89"/><polygon class="cls-1" points="265.41 45.07 184.73 49.98 184.08 43.43 264.76 38.52 265.41 45.07"/><polygon class="cls-1" points="129.07 52.09 48.39 57 47.71 50.1 128.39 45.19 129.07 52.09"/><polygon class="cls-1" points="61.27 56.94 45 57.93 44.73 55.14 61 54.15 61.27 56.94"/><polygon class="cls-1" points="238.08 54.12 232.92 54.44 232.68 51.99 237.84 51.67 238.08 54.12"/><polygon class="cls-1" points="44.77 51.52 39.6 51.83 39.36 49.38 44.53 49.07 44.77 51.52"/><polygon class="cls-1" points="131.06 37.66 46.13 42.84 45.8 39.43 130.73 34.26 131.06 37.66"/><polygon class="cls-1" points="53.89 44.78 51.31 44.93 51.19 43.71 53.77 43.55 53.89 44.78"/><polygon class="cls-1" points="229.94 21.79 224.77 22.1 224.53 19.66 229.69 19.34 229.94 21.79"/><polygon class="cls-1" points="72.72 58.32 56.45 59.31 56.17 56.53 72.44 55.53 72.72 58.32"/><polygon class="cls-1" points="108.85 64.88 28.17 69.79 27.85 66.52 108.53 61.6 108.85 64.88"/><polygon class="cls-1" points="61.91 25.11 45.63 26.1 45.36 23.32 61.63 22.32 61.91 25.11"/><polygon class="cls-1" points="193.64 67.62 112.96 72.53 112.13 64.13 192.81 59.22 193.64 67.62"/><polygon class="cls-1" points="27.79 65.85 21.88 66.2 21.68 64.16 27.58 63.8 27.79 65.85"/><polygon class="cls-1" points="66.66 66.82 57.99 67.61 52.1 27.58 60.76 26.8 66.66 66.82"/><path class="cls-2" d="M55.51,38.86,56.63,44l5.19-.54,1,3.55-3.2.33,1.12,5.13,3.44-.35.9,3.36L59.59,56l1.12,5.14,5.68-.59.68,2.57-5.66.58,1.12,5.17,5.88-.61.93,3.57-3.85.4,1.13,5.16,4-.41.87,3.39-6,.62,1.12,5.16,26.61-2.73-.64-2.94,2.25-.13c4.15,1.84,9.19,2.27,14.69,1.71,9.46-1,15.77-4.56,17.24-9.45l3.45-1.21,1.66,7.64,10-1h0L139,66.14,161.9,76h0l6.16-.63h0l-2.88-13.23L158.43,55l2.27-.21,18.5,19.67,9.26-1,6.12-14.7a9,9,0,0,0,.2,2.39c1.46,6.71,9.6,10.44,20.36,9.34,0,0,9.85-1.06,12.59-1.43a6,6,0,0,0,.68-.11h0c3.51-.34,8.75-.85,8.95-.85l-1.6-4.86-5.68.67-3.49-16.05,4.37-.8L228.4,31.64l-4.06,3a8.39,8.39,0,0,0-.17-1.85c-1.52-7-10.58-10.82-22.51-9.59-6.78.69-11.84,2.74-14.88,6.28l.87.36c-.32.18-.63.36-.93.55L185.5,24.8l-23.95,2.46.69,3.21a42.67,42.67,0,0,0-9.37-1.25,39.4,39.4,0,0,0-7.42.08c-12,1.23-19,6.75-17.44,13.79a9.67,9.67,0,0,0,2.41,4.56l-2.61.7v-.09a9.64,9.64,0,0,1-3.11-5.19,7.93,7.93,0,0,1,.76-5.59L124.27,32l-9.93,1,1.92,8.17L99.55,34.74,108,41,94.4,35.1l-6.07.63,0,.18-1.59-.07v.81l-4.24.54-.24-1.08ZM156,65.83l-18.72-8.08.5-1.22,18,8.5.19.8Zm52.77-19.56.79,1.85h-.09C209.21,47.53,209,46.91,208.74,46.27Zm-69.12-8.78a6.8,6.8,0,0,0-1,3.78,6.6,6.6,0,0,0,.75,2.81,6,6,0,0,1-.88-2.06A5,5,0,0,1,139.62,37.49Zm31.76,16.3,4.38-.4.44,1.5-3.55.36ZM178.1,60a5.14,5.14,0,0,0-.53.94l-.69-.81ZM197,52.89h.46a10.79,10.79,0,0,0-.82.84Zm8.61,3.3a8.23,8.23,0,0,0,.21,5.83,6.51,6.51,0,0,1-.75-1.91A5.32,5.32,0,0,1,205.64,56.19Zm3.1-9.92-.07-.21.44-.06ZM161,31.84l-.06-.28h.14Zm-29,22L129,54l-.37-1.71Z"/><path class="cls-2" d="M107.6,56.78l-2.82-11.84,22.71,9.8,6.12-.63L132.28,48a9.7,9.7,0,0,1-3.11-5.19,8,8,0,0,1,.76-5.59l-1.18-5.44-9.92,1,2.77,11.85L98.89,34.83l-6.07.63L97.68,57.8Z"/><polygon class="cls-2" points="61.11 43.73 77.97 42 78.75 45.56 64.06 47.07 65.17 52.2 79.86 50.69 80.6 54.08 64.08 55.77 65.19 60.91 91.64 58.19 86.78 35.84 60 38.59 61.11 43.73"/><path class="cls-2" d="M193,73.21l6.11-14.7a9,9,0,0,0,.2,2.39c1.46,6.71,9.61,10.44,20.37,9.34,0,0,9.85-1.06,12.58-1.43a6.38,6.38,0,0,0,.69-.11h0c3.51-.34,8.75-.85,9-.85L240.28,63l-5.68.67L230.78,46.1l-16,1.65c-6.32.65-11,2.74-13.58,5.72l1.78-4.27-10.67,1.09-1.17,3.26-14,1.43-2.51-2.88L164,53.2l19.73,21Zm22.67-20.27,6.3-.64h0l2.64,12.15-6.3.65c-4.41.45-7.89-1.65-8.67-5.26S211.21,53.39,215.62,52.94ZM189.07,59l-2.48,6.84-5.23-6Z"/><path class="cls-2" d="M198.79,32.29c1.58-2.26,3.89-3.71,8.24-4.15,5.91-.61,10.44,1.54,11.28,5.4s-2.44,6.74-8.21,7.33c-3.69.38-7-.24-9-1.56L195.75,44c4.29,2.17,9.66,2.68,15.52,2.07,11.92-1.22,18.88-6.6,17.38-13.49S218.07,21.72,206.15,23c-6.79.69-11.84,2.74-14.89,6.28l7.48,3.07A0,0,0,0,0,198.79,32.29Z"/><polygon class="cls-2" points="181.4 30.53 185.05 47.31 194.73 46.32 189.99 24.53 166.03 26.99 167.12 32 181.4 30.53"/><path class="cls-2" d="M155,52.5c12.07-1.24,19.07-6.76,17.54-13.8a10.23,10.23,0,0,0-3.87-5.89.61.61,0,0,0-.39-.09l-2.5.26-.44-2a.27.27,0,0,0-.17-.18c-4-1.69-9.24-2.36-15.27-1.74-12,1.23-19,6.75-17.45,13.79S143.07,53.73,155,52.5Zm-4-18.22c5.76-.59,10.17,1.61,11,5.5s-2.43,6.88-8.19,7.47-10.12-1.61-11-5.5S145.36,34.87,151.08,34.28Z"/><path class="cls-2" d="M146.37,77.78h0l-2.84-11.91,22.86,9.86h0l6.15-.63h0l-2.88-13.23-7-7.47c-.47-.51-.07-1.15.77-1.35l-5.73.59,2.79,11.92h0L137.6,55.7h0l-6.11.62,4.89,22.49Z"/><path class="cls-2" d="M109.79,63.93c5.92-.6,10.45,1.54,11.29,5.4s-2.45,6.75-8.22,7.34c-3.68.38-7-.24-9-1.57h0l-5.38,4.66c4.29,2.16,9.65,2.67,15.51,2.07,11.93-1.23,18.89-6.6,17.39-13.5s-10.58-10.81-22.51-9.59c-6.78.7-11.84,2.74-14.88,6.28l7.5,3.09C103.12,65.83,105.43,64.38,109.79,63.93Z"/><polygon class="cls-2" points="67.02 68.64 83.98 66.89 84.76 70.48 69.98 72 71.1 77.16 85.89 75.65 86.63 79.05 70 80.76 71.12 85.92 97.73 83.19 92.84 60.7 65.89 63.47 67.02 68.64"/><polygon class="cls-2" points="48.46 76.79 129.55 69.67 129.98 72.8 48.89 79.91 48.46 76.79"/><polygon class="cls-2" points="21.88 49.62 102.97 42.5 103.82 48.76 22.73 55.87 21.88 49.62"/><polygon class="cls-2" points="158.96 38.82 240.05 31.7 240.95 38.28 159.86 45.4 158.96 38.82"/><polygon class="cls-2" points="227.08 32.14 243.44 30.71 243.8 33.37 227.44 34.8 227.08 32.14"/><polygon class="cls-2" points="49.11 40.13 54.3 39.67 54.62 42.01 49.43 42.47 49.11 40.13"/><polygon class="cls-2" points="243.87 36.84 249.06 36.39 249.38 38.73 244.19 39.18 243.87 36.84"/><polygon class="cls-2" points="157.4 52.69 242.77 45.2 243.21 48.44 157.84 55.93 157.4 52.69"/><polygon class="cls-2" points="234.9 43.57 237.49 43.34 237.65 44.51 235.06 44.74 234.9 43.57"/><polygon class="cls-2" points="58.32 70.84 63.51 70.39 63.83 72.73 58.64 73.18 58.32 70.84"/><polygon class="cls-2" points="215.51 31.16 231.87 29.73 232.23 32.38 215.88 33.82 215.51 31.16"/><polygon class="cls-2" points="178.92 25.96 260.02 18.85 260.44 21.97 179.35 29.09 178.92 25.96"/><polygon class="cls-2" points="227.44 62.64 243.79 61.2 244.16 63.86 227.8 65.3 227.44 62.64"/><polygon class="cls-2" points="93.45 25.87 174.54 18.76 175.64 26.78 94.55 33.89 93.45 25.87"/><polygon class="cls-2" points="260.53 22.61 266.46 22.09 266.73 24.05 260.8 24.57 260.53 22.61"/><polygon class="cls-2" points="221.35 22.84 230.06 21.83 237.24 59.98 228.53 60.99 221.35 22.84"/><path class="cls-3" d="M234,63.94l0-.24-.75.07-.56-3.21,40.42-3.13-.64-8.34-41.22,3.19-.75-4.34,5.4-.53-.94-6.86L230.5,41l0-.25-1.23.12-.56-3.18,5.64-.55-.95-6.9-4.42.43,0-.25-1.44.14L226.71,26l3.82-.37-.54-4,17.59-1.36-.33-4.17-21.91,1.7-.54-3.25,6-.58-.94-6.91-4.43.44,0-.25L198.9,9.87l.35,2.56a24.16,24.16,0,0,0-12.1-1.57l-.32,0a30.53,30.53,0,0,0-4.14.14c-8.54.83-14.57,4.62-16.83,10.1l-1-7.16-4.43.43,0-.24-9.94,1h0l1.93,12.65L135,16.89h0l-4.11.4-.35-.22h0l-6.13.6h0l1.85,13.46L117.8,18.29l-4.3.42-.16-.24-9.21.9-3.73,11c-3-5.91-9.81-9.12-18.38-8.29l-.76.08a27.28,27.28,0,0,0-3.7.1s-9.8,1-12.53,1.4a5,5,0,0,0-.68.12h0c-3.49.32-8.7.78-8.91.78l1.08,4.92L53,29.76l.27,3.54,9.5-.73.3,2.23-3.33.39,1.67,14.45-8,.62.33,4.33L61.94,54,63,63.24l-7.63.6L55.85,70l-3.46.27.28,3.54,11.24-.87.2,2.63.33,0,.79,6.89-29.71,2.3.32,4.17,45.93-3.56a29.1,29.1,0,0,0,7.64.24l.39,0a33.11,33.11,0,0,0,4.07-.13,26.83,26.83,0,0,0,6.84-1.52l4.7-.37.09.6,4.42-.43,0,.25,10-1,.73,9.43,80.67-6.25-.82-10.69-8,.62v-3.7l3.1,1.76-1.2-1.27L196.2,74l4.11-.4.35.22,6-.59,0-.25,1.57.16,4.43-.43,0,.25,26.66-2.6-.94-6.86ZM87.51,54.57l.08-.07,0,.07ZM87,52c.2.8.41,1.62.63,2.48L86.87,52Zm46.39,26.29a26.36,26.36,0,0,0,12,1.39l.43-.06H146l-12.31,1Zm19,.85c6.19-1.11,10.84-3.94,13.32-7.9l.78,5.64,1.57-.15v1.19Zm27.14-12-.34-2.32,4.09,2.32Z"/><rect class="cls-3" x="240.46" y="66.03" width="5.18" height="3.12" transform="translate(-4.49 18.97) rotate(-4.43)"/><rect class="cls-3" x="47.14" y="62.71" width="5.18" height="3.12" transform="translate(-4.81 4.03) rotate(-4.43)"/><rect class="cls-3" x="58.91" y="55.6" width="2.59" height="1.56" transform="matrix(1, -0.08, 0.08, 1, -4.17, 4.82)"/><rect class="cls-3" x="232.31" y="24.89" width="5.18" height="3.12" transform="translate(-1.34 18.22) rotate(-4.43)"/><rect class="cls-3" x="29.44" y="81.48" width="5.92" height="2.61" transform="translate(-6.3 2.75) rotate(-4.43)"/><path d="M231.64,76.31l-.89-8-4.91.59-.78-5.56,3-.37-.9-8-3.25.39L223.19,50l5.13-.61-.89-8-5.37.65-.56-4,5.35-.64-.9-8.09-5.56.67-.76-5.6,3.64-.43-.9-8.09-3.83.46L217.82,11l5.69-.69-.9-8.08-25.14,3L198,9.8l-2.12.1C192,6.85,187.27,6,182.08,6.57c-8.94,1.08-15,6.37-16.52,13.9l-3.29,1.72-1.33-12-9.43,1.13h0L153.82,30l-21.23-16.4h0l-5.81.7h0l2.3,20.7,6.14,11.47-2.14.22L116.25,15.28l-8.74,1L101.3,38.92a22.46,22.46,0,0,0-.12-3.73C100,24.68,92.46,18.5,82.29,19.72c0,0-9.31,1.2-11.89,1.64l-.65.14,0,0c-3.31.37-8.26.91-8.46.9l1.36,7.64L68,29.27l2.8,25.13-4.14,1.05,2,24.12,3.91-4.51a21.65,21.65,0,0,0,.11,2.88c1.21,10.9,9.63,17.31,20.9,16,6.41-.77,11.23-3.71,14.21-9.08l-.82-.61q.46-.39.9-.81l1,8.78,22.63-2.72-.56-5a26.42,26.42,0,0,0,8.79,2.38,22.76,22.76,0,0,0,7,.21c11.31-1.36,18.07-9.62,16.85-20.64a20.32,20.32,0,0,0-2.14-7.21l2.48-1v.14a20.51,20.51,0,0,1,1.88,16.89l.95,8.51,9.38-1.12-1.56-12.8,15.54,10.86-7.74-10.06,12.6,9.74,5.73-.69,0-.29,1.5.18,0-1.25,4-.66.19,1.69ZM137.87,29.73l17.38,13.43-.5,1.88L138,31l-.15-1.26Zm-50.3,28-.68-2.9.09,0C87.17,55.73,87.37,56.7,87.57,57.71Zm64.82,16.85a16,16,0,0,0,.48-10.24,13.42,13.42,0,0,1,.77,3.26A11.31,11.31,0,0,1,152.39,74.56ZM123,47.75l-4.14.42-.36-2.35,3.35-.41Zm-6.14-9.93a10,10,0,0,0,.52-1.43l.63,1.29ZM98.81,48l-.44,0a14.91,14.91,0,0,0,.8-1.26Zm-8-5.52a21.07,21.07,0,0,0,0-9.08,14.71,14.71,0,0,1,.64,3A12.94,12.94,0,0,1,90.8,42.44ZM87.57,57.72l.07.32-.42.08Zm44.49,24.64.05.45H132Zm28-32.84,2.79-.08.3,2.67Z"/><path d="M157.73,49.17c.45-.13,9.82-1.12,9.82-1.12L163,54.14s-5.91-5.63-6.1-5.25"/><path d="M161,60.24c-.2-.06-2.06,19.92-2.06,19.92l5.59-2,2.67-15.75-5.55-3s1.68,17.89,1.6,18,1.61,7.14,1.61,7.14"/><polyline points="163.96 75.53 165.6 83.67 164.82 84.09 163.09 74.97 164.2 74.97"/><path class="cls-4" d="M186,48.26l2.34,18.15L166.89,50.47l-5.87.68,1.08,9.37A19.37,19.37,0,0,1,164,77.05l1,8.34,9.54-1.11-2.29-18.16,21.44,15.95,5.83-.68-4-34.24Z"/><path class="cls-5" d="M186,48.26l2.34,18.15L166.89,50.47l-5.87.68,1.08,9.37A19.37,19.37,0,0,1,164,77.05l1,8.34,9.54-1.11-2.29-18.16,21.44,15.95,5.83-.68-4-34.24Z"/><polygon class="cls-4" points="230.1 70.24 213.91 72.11 213.28 66.65 227.39 65.02 226.48 57.15 212.37 58.78 211.77 53.6 227.64 51.77 226.73 43.9 201.32 46.84 205.28 81.08 231.01 78.1 230.1 70.24"/><polygon class="cls-5" points="230.1 70.24 213.91 72.11 213.28 66.65 227.39 65.02 226.48 57.15 212.37 58.78 211.77 53.6 227.64 51.77 226.73 43.9 201.32 46.84 205.28 81.08 231.01 78.1 230.1 70.24"/><path class="cls-4" d="M104.8,19.39,98.49,41.5a21.51,21.51,0,0,0-.12-3.65C97.18,27.56,89.5,21.52,79.16,22.71c0,0-9.46,1.17-12.09,1.61a6.42,6.42,0,0,0-.66.13l0,0c-3.37.36-8.41.89-8.6.88l1.38,7.48,5.46-.77L67.74,59l15.41-1.78c6.06-.71,10.65-3.67,13.18-8.09L94.49,55.5l10.25-1.19,1.22-4.9,13.41-1.55,2.31,4.49,10.25-1.18L113.7,18.36ZM82.47,49.22l-6.06.7h0L74.26,31.3l6-.7c4.24-.49,7.5,2.86,8.15,8.4S86.7,48.73,82.47,49.22Zm25.6-8.08,2.59-10.3,4.82,9.44Z"/><path class="cls-5" d="M104.8,19.39,98.49,41.5a21.51,21.51,0,0,0-.12-3.65C97.18,27.56,89.5,21.52,79.16,22.71c0,0-9.46,1.17-12.09,1.61a6.42,6.42,0,0,0-.66.13l0,0c-3.37.36-8.41.89-8.6.88l1.38,7.48,5.46-.77L67.74,59l15.41-1.78c6.06-.71,10.65-3.67,13.18-8.09L94.49,55.5l10.25-1.19,1.22-4.9,13.41-1.55,2.31,4.49,10.25-1.18L113.7,18.36ZM82.47,49.22l-6.06.7h0L74.26,31.3l6-.7c4.24-.49,7.5,2.86,8.15,8.4S86.7,48.73,82.47,49.22Zm25.6-8.08,2.59-10.3,4.82,9.44Z"/><path class="cls-6" d="M97.73,80.84c-1.59,3.38-3.85,5.46-8,6-5.69.65-10-2.82-10.64-8.73s2.55-10.16,8.09-10.8c3.54-.41,6.74.69,8.54,2.79L101,63.21c-4-3.5-9.15-4.51-14.79-3.86-11.45,1.33-18.28,9.19-17.06,19.76s9.79,16.94,21.25,15.62c6.52-.76,11.42-3.63,14.45-8.89l-7.07-5S97.73,80.83,97.73,80.84Z"/><polygon class="cls-6" points="114.32 84.3 111.35 58.59 102.05 59.66 105.91 93.05 128.92 90.39 128.04 82.72 114.32 84.3"/><path class="cls-6" d="M140.24,52.05c-11.59,1.34-18.47,9.42-17.23,20.21a18.6,18.6,0,0,0,3.53,9.15.41.41,0,0,0,.37.15l2.4-.28.36,3.11a.37.37,0,0,0,.16.28c3.74,2.76,8.77,4,14.57,3.34,11.49-1.33,18.37-9.42,17.13-20.2S151.74,50.72,140.24,52.05ZM143.47,80c-5.54.64-9.69-2.9-10.38-8.86s2.54-10.37,8.08-11S150.81,63,151.5,69,149,79.33,143.47,80Z"/><path class="cls-6" d="M149.33,14h0l2.35,18.27-21.58-16h0l-5.91.69h0l2.34,20.26,6.5,11.7a1.41,1.41,0,0,1-.78,2l5.51-.64-2.3-18.28h0L157,48h0l5.86-.68-4-34.45Z"/><path class="cls-6" d="M183.91,36.69c-5.68.66-9.95-2.82-10.63-8.73s2.55-10.15,8.09-10.8c3.54-.4,6.73.69,8.53,2.79h0l5.3-6.84c-4-3.5-9.16-4.51-14.79-3.86C169,10.58,162.13,18.45,163.35,29S173.14,46,184.6,44.63C191.11,43.88,196,41,199,35.74l-7.09-5C190.36,34.1,188.1,36.2,183.91,36.69Z"/><polygon class="cls-6" points="225.01 31.46 208.72 33.35 208.08 27.85 222.28 26.21 221.37 18.3 207.17 19.94 206.56 14.72 222.53 12.88 221.62 4.96 196.06 7.92 200.04 42.37 225.93 39.38 225.01 31.46"/><path class="cls-7" d="M110.68,37.67q4.75,8.91,9.19,18c.85,1.73,3.44.21,2.59-1.52q-4.42-9.06-9.19-18c-.91-1.7-3.5-.19-2.59,1.51Z"/><rect x="196.1" y="14.64" width="13.39" height="6.32" transform="translate(-0.71 23.22) rotate(-6.54)"/><rect x="197.31" y="27.67" width="13.39" height="6.8" transform="translate(-2.21 23.45) rotate(-6.54)"/><rect x="201.54" y="54" width="13.39" height="5.22" transform="translate(-5.09 24.1) rotate(-6.54)"/><rect x="201.14" y="67.29" width="13.39" height="5.48" transform="translate(-6.63 24.14) rotate(-6.54)"/></svg>